<?xml version="1.0" encoding="UTF-8" standalone="no"?> <svg xmlns="http://www.w3.org/2000/svg" viewBox="0 0 32 32"><defs><style>.cls-1{fill:#3fa9f5;}</style></defs><title>Arrange, layer, layers</title><g id="_11" data-name="11"><circle class="cls-1" cx="21.5" cy="10.5" r="7.5"/><path d="M16,20.049a1,1,0,0,1-.531-.153l-12-7.51a1,1,0,0,1,.052-1.725l12-6.539a1,1,0,0,1,.958,0l12,6.539a1,1,0,0,1,.052,1.725l-12,7.51A1,1,0,0,1,16,20.049ZM5.98,11.6,16,17.869,26.02,11.6,16,6.139Z"/><path d="M16,23.877a1,1,0,0,1-.515-.143l-12-7.215a1,1,0,1,1,1.03-1.714L16,21.71l11.485-6.905a1,1,0,1,1,1.03,1.714l-12,7.215A1,1,0,0,1,16,23.877Z"/><path d="M16,28a1,1,0,0,1-.515-.143l-12-7.215a1,1,0,0,1,1.03-1.715L16,25.833l11.485-6.906a1,1,0,0,1,1.03,1.715l-12,7.215A1,1,0,0,1,16,28Z"/></g></svg>